<?xml version="1.0" standalone="no"?>
<!DOCTYPE svg PUBLIC "-//W3C//DTD SVG 20010904//EN"
 "http://www.w3.org/TR/2001/REC-SVG-20010904/DTD/svg10.dtd">
<svg version="1.0" xmlns="http://www.w3.org/2000/svg"
 width="640.000000pt" height="1280.000000pt" viewBox="0 0 640.000000 1280.000000"
 preserveAspectRatio="xMidYMid meet">
<metadata>
Created by potrace 1.15, written by Peter Selinger 2001-2017
</metadata>
<g transform="translate(0.000000,1280.000000) scale(0.100000,-0.100000)"
fill="#000000" stroke="none">
<path d="M3055 12794 c-397 -61 -701 -270 -873 -601 -217 -417 -152 -926 163
-1275 l37 -40 89 88 89 88 -28 31 c-121 129 -200 307 -223 496 -45 385 185
762 552 908 424 167 905 -22 1104 -433 69 -143 80 -195 79 -381 0 -145 -3
-168 -28 -250 -34 -111 -91 -220 -161 -307 l-53 -66 98 -76 99 -77 38 42 c137
152 236 369 265 584 6 43 8 133 5 200 -22 500 -386 934 -877 1046 -83 19 -310
33 -375 23z"/>
<path d="M3105 12026 c-148 -37 -253 -147 -285 -300 -22 -108 12 -224 91 -311
28 -30 67 -64 87 -76 20 -12 38 -23 40 -25 3 -2 -20 -100 -193 -819 -101 -416
-156 -641 -415 -1690 -66 -269 -170 -692 -231 -940 -61 -247 -191 -772 -289
-1165 -98 -393 -435 -1745 -749 -3005 -314 -1259 -577 -2315 -586 -2345 -8
-30 -11 -58 -7 -62 4 -4 464 -231 1022 -504 558 -273 1147 -561 1308 -640
l294 -143 1321 660 c727 364 1323 662 1325 664 3 3 -2484 9954 -2494 9980 -4
9 9 21 33 33 21 11 59 42 84 69 197 211 97 544 -186 617 -69 19 -102 19 -170
2z m129 -250 c51 -21 76 -60 76 -118 0 -43 -4 -54 -34 -84 -30 -30 -40 -34
-84 -34 -40 0 -57 6 -81 26 -72 60 -54 171 34 210 38 17 49 17 89 0z m-236
-1883 c-39 -40 -73 -71 -75 -70 -3 3 118 492 134 547 5 14 9 -70 11 -190 l2
-214 -72 -73z m396 183 l64 -259 -69 69 -69 68 1 201 c0 110 2 196 4 190 3 -5
33 -127 69 -269z m-328 -713 c-2 -2 -41 14 -86 37 l-83 42 84 84 84 85 3 -122
c1 -67 1 -124 -2 -126z m338 158 l79 -79 -82 -41 -81 -41 0 120 c0 66 1 120 3
120 1 0 38 -36 81 -79z m-434 -395 c0 -1 -67 -66 -149 -144 l-149 -142 40 158
c21 86 43 174 49 194 l10 38 99 -50 c55 -28 100 -52 100 -54z m727 -273 c-1
-1 -68 60 -147 136 l-145 138 100 51 100 50 47 -186 c26 -103 46 -188 45 -189z
m-630 -469 c-6 -6 -308 177 -305 185 2 4 71 72 153 150 l150 143 3 -238 c1
-130 1 -239 -1 -240z m451 284 l103 -104 -151 -91 -150 -91 0 235 0 235 48
-40 c26 -22 93 -87 150 -144z m-750 -403 c105 -60 190 -113 189 -117 -1 -4
-114 -91 -252 -194 -137 -103 -264 -198 -281 -211 l-32 -24 79 318 c90 359 86
346 97 341 5 -2 95 -52 200 -113z m1131 -212 c45 -178 81 -324 81 -327 0 -2
-126 91 -280 206 l-280 211 197 117 c109 65 199 117 200 116 1 -1 38 -146 82
-323z m-833 -940 c-5 -5 -636 310 -636 317 1 3 144 112 318 242 l317 237 3
-396 c1 -218 0 -398 -2 -400z m581 544 l302 -226 -182 -94 c-100 -52 -242
-125 -314 -161 l-133 -66 0 396 c0 316 3 394 13 387 6 -6 148 -112 314 -236z
m-1033 -601 c180 -88 325 -164 323 -169 -3 -10 -910 -668 -914 -663 -3 3 230
951 242 984 3 8 9 12 14 10 5 -2 156 -75 335 -162z m1619 -336 c68 -275 123
-500 121 -500 -2 0 -907 653 -923 666 -4 4 656 334 668 334 5 0 65 -225 134
-500z m-1163 -711 c0 -358 -4 -649 -8 -647 -31 12 -1022 553 -1022 558 0 3
226 167 501 365 275 197 503 363 505 367 21 34 24 -47 24 -643z m773 271 c273
-195 496 -357 496 -360 0 -5 -986 -541 -1009 -548 -7 -3 -10 215 -10 638 0
544 2 640 14 633 8 -4 237 -168 509 -363z m-1416 -860 l522 -284 -62 -43
c-501 -348 -1383 -948 -1385 -942 -3 6 358 1459 379 1527 6 18 14 31 17 29 4
-2 242 -131 529 -287z m2255 -492 c108 -431 195 -784 194 -785 -3 -4 -1434
983 -1435 991 -2 7 1022 574 1040 575 3 1 93 -351 201 -781z m-1612 -918 c0
-495 -3 -900 -7 -900 -18 1 -1448 798 -1447 806 2 9 1433 993 1447 994 4 0 7
-405 7 -900z m972 404 c387 -267 709 -492 716 -498 10 -10 -137 -94 -690 -396
-387 -211 -713 -390 -725 -398 l-23 -14 0 901 c0 557 4 900 9 896 5 -3 326
-224 713 -491z m-1887 -1092 c396 -217 726 -398 734 -402 14 -7 -4 -15 -779
-340 -239 -100 -588 -247 -775 -325 -187 -79 -341 -142 -343 -141 -1 2 89 368
200 814 196 783 203 810 223 800 11 -6 344 -189 740 -406z m3029 -401 c113
-447 199 -810 193 -808 -745 314 -1690 710 -1772 744 -60 25 -113 48 -117 52
-7 6 1482 831 1490 826 1 -1 94 -368 206 -814z m-3360 -815 c-522 -260 -951
-472 -953 -470 -4 3 29 135 38 152 7 12 1829 788 1855 791 5 1 -418 -212 -940
-473z m2726 82 l914 -384 22 -87 c12 -48 19 -87 15 -86 -3 0 -431 214 -951
475 -520 261 -938 473 -930 470 8 -2 427 -177 930 -388z m-1480 -793 c0 -606
-4 -1045 -9 -1045 -5 0 -478 235 -1052 521 l-1044 521 1045 524 c575 287 1048
523 1053 523 4 1 7 -469 7 -1044z m2339 -1 c3 -3 -2074 -1044 -2084 -1044 -3
0 -5 470 -5 1045 l0 1045 1043 -521 c573 -287 1044 -523 1046 -525z"/>
</g>
</svg>
